<mxfile host="app.diagrams.net" modified="2023-10-11T19:54:04.061Z" agent="Mozilla/5.0 (Windows NT 10.0; Win64; x64) AppleWebKit/537.36 (KHTML, like Gecko) Chrome/117.0.0.0 Safari/537.36" etag="_oKBjDkL75u8PBvqpmOx" version="22.0.4" type="github">
  <diagram name="Page-1" id="e7e014a7-5840-1c2e-5031-d8a46d1fe8dd">
    <mxGraphModel dx="1434" dy="3236" grid="1" gridSize="10" guides="1" tooltips="1" connect="1" arrows="1" fold="1" page="1" pageScale="1" pageWidth="1169" pageHeight="826" background="none" math="0" shadow="0">
      <root>
        <mxCell id="0" />
        <mxCell id="1" parent="0" />
        <mxCell id="nJZ4za5hY67Iaz240Wvi-25" value="Usuario" style="shape=umlActor;verticalLabelPosition=bottom;verticalAlign=top;html=1;" vertex="1" parent="1">
          <mxGeometry x="60" y="-1310" width="30" height="60" as="geometry" />
        </mxCell>
        <mxCell id="nJZ4za5hY67Iaz240Wvi-26" value="Operador telefonico" style="shape=umlActor;verticalLabelPosition=bottom;verticalAlign=top;html=1;" vertex="1" parent="1">
          <mxGeometry x="255" y="-1120" width="30" height="60" as="geometry" />
        </mxCell>
        <mxCell id="nJZ4za5hY67Iaz240Wvi-39" style="edgeStyle=orthogonalEdgeStyle;rounded=0;orthogonalLoop=1;jettySize=auto;html=1;" edge="1" parent="1" source="nJZ4za5hY67Iaz240Wvi-27" target="nJZ4za5hY67Iaz240Wvi-34">
          <mxGeometry relative="1" as="geometry" />
        </mxCell>
        <mxCell id="nJZ4za5hY67Iaz240Wvi-27" value="Vendedor presencial" style="shape=umlActor;verticalLabelPosition=bottom;verticalAlign=top;html=1;" vertex="1" parent="1">
          <mxGeometry x="255" y="-1210" width="30" height="60" as="geometry" />
        </mxCell>
        <mxCell id="nJZ4za5hY67Iaz240Wvi-48" style="edgeStyle=orthogonalEdgeStyle;rounded=0;orthogonalLoop=1;jettySize=auto;html=1;" edge="1" parent="1" source="nJZ4za5hY67Iaz240Wvi-28" target="nJZ4za5hY67Iaz240Wvi-40">
          <mxGeometry relative="1" as="geometry" />
        </mxCell>
        <mxCell id="nJZ4za5hY67Iaz240Wvi-28" value="Administracion" style="shape=umlActor;verticalLabelPosition=bottom;verticalAlign=top;html=1;" vertex="1" parent="1">
          <mxGeometry x="255" y="-1520" width="30" height="60" as="geometry" />
        </mxCell>
        <mxCell id="nJZ4za5hY67Iaz240Wvi-51" style="edgeStyle=orthogonalEdgeStyle;rounded=0;orthogonalLoop=1;jettySize=auto;html=1;" edge="1" parent="1" source="nJZ4za5hY67Iaz240Wvi-31" target="nJZ4za5hY67Iaz240Wvi-42">
          <mxGeometry relative="1" as="geometry" />
        </mxCell>
        <mxCell id="nJZ4za5hY67Iaz240Wvi-31" value="clienteWeb&lt;br&gt;" style="shape=umlActor;verticalLabelPosition=bottom;verticalAlign=top;html=1;" vertex="1" parent="1">
          <mxGeometry x="255" y="-1370" width="30" height="60" as="geometry" />
        </mxCell>
        <mxCell id="nJZ4za5hY67Iaz240Wvi-34" value="" style="shape=umlBoundary;whiteSpace=wrap;html=1;" vertex="1" parent="1">
          <mxGeometry x="395" y="-1174" width="100" height="80" as="geometry" />
        </mxCell>
        <mxCell id="nJZ4za5hY67Iaz240Wvi-35" value="SistemaOperador" style="text;align=center;fontStyle=1;verticalAlign=middle;spacingLeft=3;spacingRight=3;strokeColor=none;rotatable=0;points=[[0,0.5],[1,0.5]];portConstraint=eastwest;html=1;" vertex="1" parent="1">
          <mxGeometry x="420" y="-1094" width="80" height="26" as="geometry" />
        </mxCell>
        <mxCell id="nJZ4za5hY67Iaz240Wvi-36" style="edgeStyle=orthogonalEdgeStyle;rounded=0;orthogonalLoop=1;jettySize=auto;html=1;entryX=0.02;entryY=0.5;entryDx=0;entryDy=0;entryPerimeter=0;" edge="1" parent="1" source="nJZ4za5hY67Iaz240Wvi-26" target="nJZ4za5hY67Iaz240Wvi-34">
          <mxGeometry relative="1" as="geometry" />
        </mxCell>
        <mxCell id="nJZ4za5hY67Iaz240Wvi-68" style="edgeStyle=orthogonalEdgeStyle;rounded=0;orthogonalLoop=1;jettySize=auto;html=1;entryX=0;entryY=0.5;entryDx=0;entryDy=0;exitX=0.98;exitY=0.2;exitDx=0;exitDy=0;exitPerimeter=0;" edge="1" parent="1" source="nJZ4za5hY67Iaz240Wvi-40" target="nJZ4za5hY67Iaz240Wvi-67">
          <mxGeometry relative="1" as="geometry" />
        </mxCell>
        <mxCell id="nJZ4za5hY67Iaz240Wvi-40" value="" style="shape=umlBoundary;whiteSpace=wrap;html=1;" vertex="1" parent="1">
          <mxGeometry x="395" y="-1530" width="100" height="80" as="geometry" />
        </mxCell>
        <mxCell id="nJZ4za5hY67Iaz240Wvi-41" value="sistemaGestion" style="text;align=center;fontStyle=1;verticalAlign=middle;spacingLeft=3;spacingRight=3;strokeColor=none;rotatable=0;points=[[0,0.5],[1,0.5]];portConstraint=eastwest;html=1;" vertex="1" parent="1">
          <mxGeometry x="410" y="-1450" width="80" height="26" as="geometry" />
        </mxCell>
        <mxCell id="nJZ4za5hY67Iaz240Wvi-42" value="" style="shape=umlBoundary;whiteSpace=wrap;html=1;" vertex="1" parent="1">
          <mxGeometry x="395" y="-1380" width="100" height="80" as="geometry" />
        </mxCell>
        <mxCell id="nJZ4za5hY67Iaz240Wvi-43" value="paginaWeb" style="text;align=center;fontStyle=1;verticalAlign=middle;spacingLeft=3;spacingRight=3;strokeColor=none;rotatable=0;points=[[0,0.5],[1,0.5]];portConstraint=eastwest;html=1;" vertex="1" parent="1">
          <mxGeometry x="410" y="-1300" width="80" height="26" as="geometry" />
        </mxCell>
        <mxCell id="nJZ4za5hY67Iaz240Wvi-45" style="edgeStyle=orthogonalEdgeStyle;rounded=0;orthogonalLoop=1;jettySize=auto;html=1;entryX=0;entryY=0.3333333333333333;entryDx=0;entryDy=0;entryPerimeter=0;" edge="1" parent="1" source="nJZ4za5hY67Iaz240Wvi-25" target="nJZ4za5hY67Iaz240Wvi-31">
          <mxGeometry relative="1" as="geometry" />
        </mxCell>
        <mxCell id="nJZ4za5hY67Iaz240Wvi-46" style="edgeStyle=orthogonalEdgeStyle;rounded=0;orthogonalLoop=1;jettySize=auto;html=1;entryX=0;entryY=0.3333333333333333;entryDx=0;entryDy=0;entryPerimeter=0;" edge="1" parent="1" source="nJZ4za5hY67Iaz240Wvi-25" target="nJZ4za5hY67Iaz240Wvi-27">
          <mxGeometry relative="1" as="geometry" />
        </mxCell>
        <mxCell id="nJZ4za5hY67Iaz240Wvi-47" style="edgeStyle=orthogonalEdgeStyle;rounded=0;orthogonalLoop=1;jettySize=auto;html=1;entryX=0;entryY=0.3333333333333333;entryDx=0;entryDy=0;entryPerimeter=0;" edge="1" parent="1" source="nJZ4za5hY67Iaz240Wvi-25" target="nJZ4za5hY67Iaz240Wvi-26">
          <mxGeometry relative="1" as="geometry" />
        </mxCell>
        <mxCell id="nJZ4za5hY67Iaz240Wvi-53" value="" style="ellipse;shape=umlControl;whiteSpace=wrap;html=1;" vertex="1" parent="1">
          <mxGeometry x="715" y="-1300" width="70" height="80" as="geometry" />
        </mxCell>
        <mxCell id="nJZ4za5hY67Iaz240Wvi-54" value="controlCartelera" style="text;align=center;fontStyle=1;verticalAlign=middle;spacingLeft=3;spacingRight=3;strokeColor=none;rotatable=0;points=[[0,0.5],[1,0.5]];portConstraint=eastwest;html=1;" vertex="1" parent="1">
          <mxGeometry x="715" y="-1220" width="80" height="26" as="geometry" />
        </mxCell>
        <mxCell id="nJZ4za5hY67Iaz240Wvi-55" value="12:seleccionarComplejo()" style="text;html=1;align=center;verticalAlign=middle;resizable=0;points=[];autosize=1;strokeColor=none;fillColor=none;" vertex="1" parent="1">
          <mxGeometry x="570" y="-1280" width="160" height="30" as="geometry" />
        </mxCell>
        <mxCell id="nJZ4za5hY67Iaz240Wvi-62" style="edgeStyle=orthogonalEdgeStyle;rounded=0;orthogonalLoop=1;jettySize=auto;html=1;entryX=-0.043;entryY=0.613;entryDx=0;entryDy=0;entryPerimeter=0;" edge="1" parent="1" source="nJZ4za5hY67Iaz240Wvi-42" target="nJZ4za5hY67Iaz240Wvi-53">
          <mxGeometry relative="1" as="geometry" />
        </mxCell>
        <mxCell id="nJZ4za5hY67Iaz240Wvi-65" value="7:mostrarFuncionesDisponibles()&lt;br&gt;13:seleccionarFuncion()" style="text;html=1;align=center;verticalAlign=middle;resizable=0;points=[];autosize=1;strokeColor=none;fillColor=none;" vertex="1" parent="1">
          <mxGeometry x="650" y="-1345" width="200" height="40" as="geometry" />
        </mxCell>
        <mxCell id="nJZ4za5hY67Iaz240Wvi-66" value="1:consultarEstrenos()" style="text;html=1;align=center;verticalAlign=middle;resizable=0;points=[];autosize=1;strokeColor=none;fillColor=none;" vertex="1" parent="1">
          <mxGeometry x="515" y="-1620" width="140" height="30" as="geometry" />
        </mxCell>
        <mxCell id="nJZ4za5hY67Iaz240Wvi-67" value=":INCAA" style="ellipse;shape=umlEntity;whiteSpace=wrap;html=1;" vertex="1" parent="1">
          <mxGeometry x="640" y="-1630" width="80" height="80" as="geometry" />
        </mxCell>
        <mxCell id="nJZ4za5hY67Iaz240Wvi-69" style="edgeStyle=orthogonalEdgeStyle;rounded=0;orthogonalLoop=1;jettySize=auto;html=1;entryX=0.014;entryY=0.613;entryDx=0;entryDy=0;entryPerimeter=0;" edge="1" parent="1" source="nJZ4za5hY67Iaz240Wvi-34" target="nJZ4za5hY67Iaz240Wvi-53">
          <mxGeometry relative="1" as="geometry" />
        </mxCell>
        <mxCell id="nJZ4za5hY67Iaz240Wvi-70" style="edgeStyle=orthogonalEdgeStyle;rounded=0;orthogonalLoop=1;jettySize=auto;html=1;entryX=0;entryY=0.613;entryDx=0;entryDy=0;entryPerimeter=0;" edge="1" parent="1" source="nJZ4za5hY67Iaz240Wvi-40" target="nJZ4za5hY67Iaz240Wvi-53">
          <mxGeometry relative="1" as="geometry" />
        </mxCell>
        <mxCell id="nJZ4za5hY67Iaz240Wvi-72" value="3:programarFuncionesHorarios()" style="text;html=1;align=center;verticalAlign=middle;resizable=0;points=[];autosize=1;strokeColor=none;fillColor=none;" vertex="1" parent="1">
          <mxGeometry x="330" y="-1620" width="200" height="30" as="geometry" />
        </mxCell>
        <mxCell id="nJZ4za5hY67Iaz240Wvi-73" value="4:asignarSala()" style="text;html=1;align=center;verticalAlign=middle;resizable=0;points=[];autosize=1;strokeColor=none;fillColor=none;" vertex="1" parent="1">
          <mxGeometry x="335" y="-1600" width="100" height="30" as="geometry" />
        </mxCell>
        <mxCell id="nJZ4za5hY67Iaz240Wvi-74" value="6:habilitarVentaReserva()" style="text;html=1;align=center;verticalAlign=middle;resizable=0;points=[];autosize=1;strokeColor=none;fillColor=none;" vertex="1" parent="1">
          <mxGeometry x="335" y="-1560" width="160" height="30" as="geometry" />
        </mxCell>
        <mxCell id="nJZ4za5hY67Iaz240Wvi-80" style="edgeStyle=orthogonalEdgeStyle;rounded=0;orthogonalLoop=1;jettySize=auto;html=1;" edge="1" parent="1" source="nJZ4za5hY67Iaz240Wvi-75" target="nJZ4za5hY67Iaz240Wvi-77">
          <mxGeometry relative="1" as="geometry" />
        </mxCell>
        <mxCell id="nJZ4za5hY67Iaz240Wvi-82" style="edgeStyle=orthogonalEdgeStyle;rounded=0;orthogonalLoop=1;jettySize=auto;html=1;entryX=0;entryY=0.5;entryDx=0;entryDy=0;" edge="1" parent="1" source="nJZ4za5hY67Iaz240Wvi-75" target="nJZ4za5hY67Iaz240Wvi-76">
          <mxGeometry relative="1" as="geometry" />
        </mxCell>
        <mxCell id="nJZ4za5hY67Iaz240Wvi-75" value=":Funcion" style="ellipse;shape=umlEntity;whiteSpace=wrap;html=1;" vertex="1" parent="1">
          <mxGeometry x="1080" y="-1530" width="80" height="80" as="geometry" />
        </mxCell>
        <mxCell id="nJZ4za5hY67Iaz240Wvi-76" value=":Sala" style="ellipse;shape=umlEntity;whiteSpace=wrap;html=1;" vertex="1" parent="1">
          <mxGeometry x="1200" y="-1690" width="80" height="80" as="geometry" />
        </mxCell>
        <mxCell id="nJZ4za5hY67Iaz240Wvi-77" value=":Pelicula" style="ellipse;shape=umlEntity;whiteSpace=wrap;html=1;" vertex="1" parent="1">
          <mxGeometry x="1200" y="-1570" width="80" height="80" as="geometry" />
        </mxCell>
        <mxCell id="nJZ4za5hY67Iaz240Wvi-84" style="edgeStyle=orthogonalEdgeStyle;rounded=0;orthogonalLoop=1;jettySize=auto;html=1;entryX=0;entryY=0.5;entryDx=0;entryDy=0;" edge="1" parent="1" source="nJZ4za5hY67Iaz240Wvi-53" target="nJZ4za5hY67Iaz240Wvi-96">
          <mxGeometry relative="1" as="geometry" />
        </mxCell>
        <mxCell id="nJZ4za5hY67Iaz240Wvi-85" value="8:obtenerEstadoSala()&lt;br&gt;9:obtenerPelicula()&lt;br&gt;11:mostrarHorarioFuncion()" style="text;html=1;align=center;verticalAlign=middle;resizable=0;points=[];autosize=1;strokeColor=none;fillColor=none;" vertex="1" parent="1">
          <mxGeometry x="1015" y="-1590" width="170" height="60" as="geometry" />
        </mxCell>
        <mxCell id="nJZ4za5hY67Iaz240Wvi-86" value="9:mostrarInformacionPelicula()" style="text;html=1;align=center;verticalAlign=middle;resizable=0;points=[];autosize=1;strokeColor=none;fillColor=none;" vertex="1" parent="1">
          <mxGeometry x="1280" y="-1545" width="190" height="30" as="geometry" />
        </mxCell>
        <mxCell id="nJZ4za5hY67Iaz240Wvi-104" style="edgeStyle=orthogonalEdgeStyle;rounded=0;orthogonalLoop=1;jettySize=auto;html=1;entryX=0;entryY=0.5;entryDx=0;entryDy=0;" edge="1" parent="1" source="nJZ4za5hY67Iaz240Wvi-87" target="nJZ4za5hY67Iaz240Wvi-103">
          <mxGeometry relative="1" as="geometry" />
        </mxCell>
        <mxCell id="nJZ4za5hY67Iaz240Wvi-107" style="edgeStyle=orthogonalEdgeStyle;rounded=0;orthogonalLoop=1;jettySize=auto;html=1;entryX=0;entryY=0.5;entryDx=0;entryDy=0;exitX=0.957;exitY=0.275;exitDx=0;exitDy=0;exitPerimeter=0;" edge="1" parent="1" source="nJZ4za5hY67Iaz240Wvi-87" target="nJZ4za5hY67Iaz240Wvi-100">
          <mxGeometry relative="1" as="geometry" />
        </mxCell>
        <mxCell id="nJZ4za5hY67Iaz240Wvi-110" style="edgeStyle=orthogonalEdgeStyle;rounded=0;orthogonalLoop=1;jettySize=auto;html=1;entryX=1;entryY=0.5;entryDx=0;entryDy=0;" edge="1" parent="1" source="nJZ4za5hY67Iaz240Wvi-87" target="nJZ4za5hY67Iaz240Wvi-109">
          <mxGeometry relative="1" as="geometry" />
        </mxCell>
        <mxCell id="nJZ4za5hY67Iaz240Wvi-87" value="" style="ellipse;shape=umlControl;whiteSpace=wrap;html=1;" vertex="1" parent="1">
          <mxGeometry x="930" y="-960" width="70" height="80" as="geometry" />
        </mxCell>
        <mxCell id="nJZ4za5hY67Iaz240Wvi-98" style="edgeStyle=orthogonalEdgeStyle;rounded=0;orthogonalLoop=1;jettySize=auto;html=1;entryX=0;entryY=0.5;entryDx=0;entryDy=0;" edge="1" parent="1" source="nJZ4za5hY67Iaz240Wvi-88" target="nJZ4za5hY67Iaz240Wvi-95">
          <mxGeometry relative="1" as="geometry" />
        </mxCell>
        <mxCell id="nJZ4za5hY67Iaz240Wvi-101" style="edgeStyle=orthogonalEdgeStyle;rounded=0;orthogonalLoop=1;jettySize=auto;html=1;" edge="1" parent="1" source="nJZ4za5hY67Iaz240Wvi-88" target="nJZ4za5hY67Iaz240Wvi-87">
          <mxGeometry relative="1" as="geometry" />
        </mxCell>
        <mxCell id="nJZ4za5hY67Iaz240Wvi-88" value="" style="ellipse;shape=umlControl;whiteSpace=wrap;html=1;" vertex="1" parent="1">
          <mxGeometry x="930" y="-1180" width="70" height="80" as="geometry" />
        </mxCell>
        <mxCell id="nJZ4za5hY67Iaz240Wvi-89" value="ControlVenta" style="text;align=center;fontStyle=1;verticalAlign=middle;spacingLeft=3;spacingRight=3;strokeColor=none;rotatable=0;points=[[0,0.5],[1,0.5]];portConstraint=eastwest;html=1;" vertex="1" parent="1">
          <mxGeometry x="925" y="-880" width="80" height="26" as="geometry" />
        </mxCell>
        <mxCell id="nJZ4za5hY67Iaz240Wvi-90" value="ControlReserva" style="text;align=center;fontStyle=1;verticalAlign=middle;spacingLeft=3;spacingRight=3;strokeColor=none;rotatable=0;points=[[0,0.5],[1,0.5]];portConstraint=eastwest;html=1;" vertex="1" parent="1">
          <mxGeometry x="930" y="-1086" width="80" height="26" as="geometry" />
        </mxCell>
        <mxCell id="nJZ4za5hY67Iaz240Wvi-91" value="5:actualizarCartelera()" style="text;html=1;align=center;verticalAlign=middle;resizable=0;points=[];autosize=1;strokeColor=none;fillColor=none;" vertex="1" parent="1">
          <mxGeometry x="335" y="-1580" width="140" height="30" as="geometry" />
        </mxCell>
        <mxCell id="nJZ4za5hY67Iaz240Wvi-93" style="edgeStyle=orthogonalEdgeStyle;rounded=0;orthogonalLoop=1;jettySize=auto;html=1;entryX=0.014;entryY=0.575;entryDx=0;entryDy=0;entryPerimeter=0;" edge="1" parent="1" source="nJZ4za5hY67Iaz240Wvi-53" target="nJZ4za5hY67Iaz240Wvi-88">
          <mxGeometry relative="1" as="geometry" />
        </mxCell>
        <mxCell id="nJZ4za5hY67Iaz240Wvi-94" value="14:verificarHorarioFuncion()&lt;br&gt;15:validarEstadoSala()&lt;br&gt;16:RegistrarReserva()&lt;br&gt;" style="text;html=1;align=center;verticalAlign=middle;resizable=0;points=[];autosize=1;strokeColor=none;fillColor=none;" vertex="1" parent="1">
          <mxGeometry x="890" y="-1245" width="170" height="60" as="geometry" />
        </mxCell>
        <mxCell id="nJZ4za5hY67Iaz240Wvi-95" value=":Reserva" style="ellipse;shape=umlEntity;whiteSpace=wrap;html=1;" vertex="1" parent="1">
          <mxGeometry x="1180" y="-1180" width="80" height="80" as="geometry" />
        </mxCell>
        <mxCell id="nJZ4za5hY67Iaz240Wvi-97" style="edgeStyle=orthogonalEdgeStyle;rounded=0;orthogonalLoop=1;jettySize=auto;html=1;entryX=0;entryY=0.5;entryDx=0;entryDy=0;" edge="1" parent="1" source="nJZ4za5hY67Iaz240Wvi-96" target="nJZ4za5hY67Iaz240Wvi-75">
          <mxGeometry relative="1" as="geometry" />
        </mxCell>
        <mxCell id="nJZ4za5hY67Iaz240Wvi-96" value=":Cine" style="ellipse;shape=umlEntity;whiteSpace=wrap;html=1;" vertex="1" parent="1">
          <mxGeometry x="930" y="-1530" width="80" height="80" as="geometry" />
        </mxCell>
        <mxCell id="nJZ4za5hY67Iaz240Wvi-99" value="17:obtenerEstadoReserva()" style="text;html=1;align=center;verticalAlign=middle;resizable=0;points=[];autosize=1;strokeColor=none;fillColor=none;" vertex="1" parent="1">
          <mxGeometry x="995" y="-1172" width="170" height="30" as="geometry" />
        </mxCell>
        <mxCell id="nJZ4za5hY67Iaz240Wvi-100" value=":Entrada" style="ellipse;shape=umlEntity;whiteSpace=wrap;html=1;" vertex="1" parent="1">
          <mxGeometry x="1180" y="-1050" width="80" height="80" as="geometry" />
        </mxCell>
        <mxCell id="nJZ4za5hY67Iaz240Wvi-102" value="18:ValidarReserva()&lt;br&gt;21:RegistrarVenta()&lt;br&gt;22:generarEntrada()&lt;br&gt;24:aplicarPromocion()" style="text;html=1;align=center;verticalAlign=middle;resizable=0;points=[];autosize=1;strokeColor=none;fillColor=none;" vertex="1" parent="1">
          <mxGeometry x="830" y="-1030" width="140" height="70" as="geometry" />
        </mxCell>
        <mxCell id="nJZ4za5hY67Iaz240Wvi-103" value=":TarjetaCredito" style="ellipse;shape=umlEntity;whiteSpace=wrap;html=1;" vertex="1" parent="1">
          <mxGeometry x="1185" y="-920" width="80" height="80" as="geometry" />
        </mxCell>
        <mxCell id="nJZ4za5hY67Iaz240Wvi-105" value="20:validarDatosTarjetaCredito()" style="text;html=1;align=center;verticalAlign=middle;resizable=0;points=[];autosize=1;strokeColor=none;fillColor=none;" vertex="1" parent="1">
          <mxGeometry x="1010" y="-880" width="190" height="30" as="geometry" />
        </mxCell>
        <mxCell id="nJZ4za5hY67Iaz240Wvi-106" value="19:solicitarDatos" style="text;html=1;align=center;verticalAlign=middle;resizable=0;points=[];autosize=1;strokeColor=none;fillColor=none;" vertex="1" parent="1">
          <mxGeometry x="1190" y="-950" width="110" height="30" as="geometry" />
        </mxCell>
        <mxCell id="nJZ4za5hY67Iaz240Wvi-108" value="23:imprimirEntrada()" style="text;html=1;align=center;verticalAlign=middle;resizable=0;points=[];autosize=1;strokeColor=none;fillColor=none;" vertex="1" parent="1">
          <mxGeometry x="1135" y="-1082" width="130" height="30" as="geometry" />
        </mxCell>
        <mxCell id="nJZ4za5hY67Iaz240Wvi-109" value=":Promocion" style="ellipse;shape=umlEntity;whiteSpace=wrap;html=1;" vertex="1" parent="1">
          <mxGeometry x="710" y="-960" width="80" height="80" as="geometry" />
        </mxCell>
      </root>
    </mxGraphModel>
  </diagram>
</mxfile>
